<?xml version="1.0" standalone="no"?>
<!DOCTYPE svg PUBLIC "-//W3C//DTD SVG 20010904//EN"
 "http://www.w3.org/TR/2001/REC-SVG-20010904/DTD/svg10.dtd">
<svg version="1.0" xmlns="http://www.w3.org/2000/svg"
 width="512.000000pt" height="512.000000pt" viewBox="0 0 512.000000 512.000000"
 preserveAspectRatio="xMidYMid meet">
<metadata>
Created by potrace 1.14, written by Peter Selinger 2001-2017
</metadata>
<g transform="translate(0.000000,512.000000) scale(0.100000,-0.100000)"
fill="#000000" stroke="none">
<path d="M3315 5021 c-27 -12 -55 -38 -85 -80 -37 -51 -54 -65 -98 -81 -84
-32 -109 -47 -139 -87 -27 -35 -28 -41 -33 -184 l-5 -147 -50 44 c-81 73 -188
123 -298 139 -40 6 -48 11 -53 34 -13 51 -66 151 -106 196 -22 25 -61 58 -86
73 -45 26 -54 27 -206 31 l-159 3 7 -42 c16 -101 125 -192 306 -256 54 -19 60
-23 35 -24 -181 -10 -343 -58 -423 -125 l-29 -25 -19 21 c-17 19 -66 50 -79
49 -3 0 -30 0 -60 0 l-55 0 0 160 0 160 -160 0 -160 0 0 -160 0 -160 -64 0
c-72 0 -115 -22 -153 -79 -23 -34 -23 -36 -23 -394 0 -198 -2 -358 -5 -355 -8
8 -12 35 -20 138 -4 52 -8 111 -10 130 -2 19 -7 84 -10 144 -8 123 -19 157
-67 203 -58 56 -128 68 -185 33 -66 -40 -86 -107 -59 -198 51 -180 116 -412
116 -417 0 -11 -46 39 -156 170 -59 72 -113 135 -119 141 -5 6 -30 35 -55 64
-24 29 -58 61 -75 71 -63 39 -159 15 -203 -51 -20 -29 -23 -45 -20 -91 5 -66
20 -88 110 -162 35 -29 74 -62 88 -74 14 -12 77 -65 140 -118 63 -53 121 -103
128 -110 8 -7 -96 19 -230 57 -187 53 -252 67 -282 63 -103 -15 -158 -128
-105 -215 47 -77 87 -95 227 -105 57 -3 113 -8 125 -10 12 -2 72 -6 132 -10
158 -9 148 -5 162 -59 28 -113 68 -163 226 -286 l96 -75 -94 -3 -95 -3 0
-1361 0 -1361 78 -78 77 -79 1281 0 1282 0 283 70 c156 39 301 75 322 81 l37
10 0 1359 0 1360 43 1 c85 1 174 23 266 65 162 74 296 211 395 403 41 81 96
219 96 243 0 7 -40 8 -124 4 l-124 -6 29 54 c76 140 120 348 135 635 l7 123
-77 -6 c-158 -14 -262 -71 -307 -170 l-19 -41 0 88 c0 48 1 88 1 90 7 11 -49
91 -82 118 -45 35 -78 96 -79 144 -1 70 -69 158 -131 169 -13 2 -79 5 -145 5
l-121 1 -6 40 c-3 23 -13 52 -22 66 -32 50 -62 54 -352 54 -238 0 -273 -2
-308 -19z"/>
</g>
</svg>
